{
	"asset":{
		"generator":"Khronos glTF Blender I/O v3.5.30",
		"version":"2.0"
	},
	"scene":0,
	"scenes":[
		{
			"name":"Scene",
			"nodes":[
				0
			]
		}
	],
	"nodes":[
		{
			"mesh":0,
			"name":"empaque"
		}
	],
	"meshes":[
		{
			"name":"empaque",
			"primitives":[
				{
					"attributes":{
						"POSITION":0,
						"TEXCOORD_0":1,
						"NORMAL":2
					},
					"indices":3
				}
			]
		}
	],
	"accessors":[
		{
			"bufferView":0,
			"componentType":5126,
			"count":17761,
			"max":[
				2.509876251220703,
				3.902548313140869,
				2.3526501655578613
			],
			"min":[
				-4.129317283630371,
				-4.080921649932861,
				-3.6250574588775635
			],
			"type":"VEC3"
		},
		{
			"bufferView":1,
			"componentType":5126,
			"count":17761,
			"type":"VEC2"
		},
		{
			"bufferView":2,
			"componentType":5126,
			"count":17761,
			"type":"VEC3"
		},
		{
			"bufferView":3,
			"componentType":5123,
			"count":96822,
			"type":"SCALAR"
		}
	],
	"bufferViews":[
		{
			"buffer":0,
			"byteLength":213132,
			"byteOffset":0,
			"target":34962
		},
		{
			"buffer":0,
			"byteLength":142088,
			"byteOffset":213132,
			"target":34962
		},
		{
			"buffer":0,
			"byteLength":213132,
			"byteOffset":355220,
			"target":34962
		},
		{
			"buffer":0,
			"byteLength":193644,
			"byteOffset":568352,
			"target":34963
		}
	],
	"buffers":[
		{
			"byteLength":761996,
			"uri":"data:application/octet-stream;base64,"
		}
	]
}
